<?xml version="1.0" standalone="no"?>
<!DOCTYPE svg PUBLIC "-//W3C//DTD SVG 20010904//EN"
 "http://www.w3.org/TR/2001/REC-SVG-20010904/DTD/svg10.dtd">
<svg version="1.0" xmlns="http://www.w3.org/2000/svg"
 width="1280.000000pt" height="960.000000pt" viewBox="0 0 1280.000000 960.000000"
 preserveAspectRatio="xMidYMid meet">
<metadata>
Created by potrace 1.15, written by Peter Selinger 2001-2017
</metadata>
<g transform="translate(0.000000,960.000000) scale(0.100000,-0.100000)"
fill="#ffffff" stroke="none">
<path d="M5610 9493 c-8 -3 -24 -14 -35 -23 -11 -10 -29 -20 -40 -22 -16 -3
-35 -60 -127 -393 -224 -807 -357 -1272 -377 -1318 -17 -39 -25 -47 -43 -45
-13 1 -72 -9 -133 -24 -60 -15 -189 -45 -285 -68 -96 -22 -236 -61 -311 -86
-86 -28 -172 -49 -235 -57 -98 -12 -99 -13 -102 -40 -2 -16 1 -34 7 -41 13
-16 17 -425 4 -436 -4 -5 -28 -12 -53 -17 -43 -8 -45 -10 -48 -46 -3 -33 -1
-37 20 -37 65 -1 68 -5 68 -101 0 -64 3 -89 13 -89 81 -2 500 -30 505 -34 3
-3 -1 -6 -9 -6 -8 0 -35 -13 -60 -28 -58 -37 -82 -96 -55 -137 24 -37 110 -75
168 -75 l47 0 33 -60 c30 -56 35 -60 68 -60 19 0 76 -7 125 -15 50 -8 93 -15
96 -15 3 0 30 -18 59 -40 30 -22 60 -38 67 -36 7 3 26 -18 44 -47 17 -29 53
-82 80 -118 27 -37 49 -77 49 -89 0 -43 103 -164 135 -158 50 9 114 -240 85
-328 -8 -24 -10 -61 -6 -105 7 -68 6 -71 -41 -167 -43 -87 -48 -104 -49 -167
0 -39 -3 -76 -7 -82 -11 -17 28 -110 63 -154 17 -21 33 -51 36 -67 15 -74 -70
-324 -152 -447 -138 -209 -244 -465 -285 -689 -16 -84 -29 -95 -142 -109 -59
-8 -93 -18 -120 -36 -22 -14 -56 -35 -76 -46 -62 -33 -119 -79 -130 -103 -6
-13 -11 -38 -11 -56 0 -53 -27 -69 -132 -78 -99 -8 -174 -37 -222 -87 -25 -26
-70 -100 -82 -132 -5 -15 -190 -109 -213 -109 -5 0 -58 19 -118 42 -78 30
-121 53 -156 84 -68 61 -176 82 -254 49 -19 -8 -64 -15 -98 -15 -84 0 -281
-51 -369 -95 -73 -36 -194 -118 -357 -241 -144 -109 -282 -189 -404 -235 -143
-53 -229 -133 -428 -399 -234 -313 -270 -444 -180 -663 13 -32 21 -63 17 -69
-4 -6 -26 -74 -50 -152 -30 -101 -39 -146 -33 -159 22 -41 193 -98 394 -131
128 -22 574 -80 880 -116 143 -17 287 -35 320 -40 117 -18 553 -70 760 -89
817 -78 1304 -49 1808 110 l129 41 117 -16 c166 -22 675 -76 789 -83 53 -3
104 -10 112 -15 9 -5 -119 -8 -322 -6 -333 3 -336 3 -360 -19 -22 -21 -29 -21
-166 -16 l-143 6 3 -34 3 -34 140 -6 c98 -4 153 -11 185 -23 40 -16 74 -17
365 -11 480 10 565 22 552 78 -3 12 -9 35 -13 50 l-7 29 106 -4 c58 -1 108 -6
112 -10 4 -3 9 -24 12 -46 5 -39 7 -40 62 -56 59 -16 196 -22 205 -8 2 4 1 26
-3 48 l-8 41 296 6 c184 4 469 19 755 41 l459 35 54 -45 c49 -39 60 -44 106
-44 29 0 120 -4 202 -9 83 -5 172 -6 200 -2 l50 6 -51 37 c-87 64 -88 63 62
60 l135 -4 -3 54 -3 53 -62 3 -63 3 0 245 0 246 55 -31 c41 -23 67 -31 105
-31 l51 0 -3 41 c-3 38 -6 43 -43 57 -22 8 -114 67 -203 130 -151 106 -462
305 -733 468 -96 57 -110 69 -105 88 3 11 9 48 12 81 3 33 7 74 10 92 l5 32
82 3 82 3 3 48 c4 55 -3 60 -108 72 -56 7 -62 9 -40 17 14 5 43 7 66 4 22 -3
73 -2 112 1 l72 6 0 399 c-1 302 -4 400 -13 402 -7 2 -100 10 -207 18 l-195
13 -3 35 c-2 20 6 77 18 128 30 137 27 183 -21 309 -53 140 -56 174 -29 302
26 120 24 195 -9 331 -34 139 -29 173 35 240 54 57 61 104 41 272 -9 79 -17
172 -17 208 l0 65 87 0 c75 0 106 6 208 38 66 22 134 45 152 53 17 8 41 14 53
14 13 0 50 10 83 22 46 17 63 19 77 10 29 -18 130 17 130 44 0 7 15 22 34 33
64 40 125 129 126 184 0 15 9 35 20 44 26 22 28 104 4 128 -15 14 -17 57 -21
343 -2 180 -3 334 -3 342 0 8 0 46 0 83 l-1 69 48 -7 48 -6 68 118 c38 65 71
130 74 144 4 21 -6 38 -52 90 -31 35 -73 93 -94 128 -34 57 -37 67 -27 94 10
27 8 31 -31 67 l-43 38 -10 118 c-14 164 -19 661 -8 879 10 222 12 478 3 567
-4 37 -1 110 6 165 7 54 11 117 10 141 -2 39 4 47 31 43 53 -7 139 -8 143 -1
5 9 -43 92 -124 212 -26 40 -55 87 -64 104 -23 45 -38 55 -63 41 -26 -15 -279
-198 -319 -231 l-30 -25 35 -14 c19 -8 65 -20 103 -28 67 -13 67 -13 63 -43
-3 -17 -8 -53 -12 -81 -4 -27 -8 -234 -10 -460 -3 -447 -11 -926 -16 -931 -6
-6 -158 282 -158 300 0 9 -11 32 -24 49 -13 18 -76 154 -141 302 -65 149 -126
288 -135 310 -72 161 -120 276 -120 287 0 8 -7 23 -15 34 -8 12 -45 93 -83
180 -60 137 -73 159 -93 162 -13 2 -33 7 -44 12 -11 5 -68 18 -127 30 -107 21
-141 20 -188 -7 -21 -12 -37 -12 -111 -1 -89 14 -140 9 -169 -17 -13 -12 -29
-12 -105 1 -92 15 -145 12 -180 -10 -16 -10 -36 -10 -110 4 -89 17 -108 16
-161 -11 -17 -9 -42 -5 -117 16 -92 26 -99 27 -142 12 -45 -14 -48 -14 -133
20 -82 32 -90 34 -139 23 -50 -11 -56 -10 -145 28 -91 38 -94 38 -137 24 -42
-14 -44 -14 -143 29 -95 41 -101 42 -143 31 -42 -11 -49 -10 -141 30 -95 41
-97 41 -138 27 -40 -14 -43 -14 -135 23 -91 37 -119 43 -151 31z m-671 -1945
c0 -24 -9 -61 -19 -83 l-19 -40 0 77 c-1 73 3 84 32 87 4 1 7 -18 6 -41z
m-120 -95 c1 -60 0 -63 -22 -63 -24 0 -24 1 -19 78 8 125 39 114 41 -15z
m-129 6 c0 -67 -1 -70 -22 -67 -21 3 -23 9 -26 65 -3 62 -1 65 41 72 4 0 7
-31 7 -70z m-138 -15 c4 -52 3 -54 -23 -47 -14 4 -19 14 -19 42 0 40 6 51 26
51 7 0 13 -18 16 -46z m-122 -9 c0 -20 -5 -25 -25 -25 -18 0 -25 5 -25 18 0
24 8 32 32 32 13 0 18 -7 18 -25z m-386 -71 c14 -5 16 -33 16 -205 0 -185 -1
-199 -18 -199 -17 0 -18 15 -20 205 -1 113 0 205 2 205 2 0 11 -3 20 -6z m128
-122 c6 -135 -3 -254 -19 -260 -10 -3 -13 39 -13 187 0 156 2 189 14 185 9 -4
14 -35 18 -112z m118 -67 c0 -103 -4 -165 -10 -165 -6 0 -10 62 -10 165 0 103
4 165 10 165 6 0 10 -62 10 -165z m127 45 c1 -63 4 -128 7 -143 5 -22 1 -29
-17 -36 -12 -5 -25 -7 -29 -4 -10 5 -10 287 -1 297 4 4 14 5 23 4 12 -3 15
-23 17 -118z m156 69 c4 -19 4 -75 0 -124 -7 -83 -10 -90 -30 -93 -21 -3 -23
1 -23 45 0 26 3 85 7 131 5 68 9 82 22 80 8 -2 19 -19 24 -39z m107 4 c0 -16
3 -65 7 -110 6 -82 6 -83 -17 -83 -22 0 -23 2 -16 61 3 34 6 84 6 110 0 27 5
49 10 49 6 0 10 -12 10 -27z m140 -25 c0 -45 -28 -138 -42 -138 -4 0 -8 41 -8
90 0 89 0 90 25 90 23 0 25 -4 25 -42z m4095 -838 c-19 -21 -35 -18 -35 6 0 9
10 14 27 14 25 0 26 -1 8 -20z m365 -222 c1 -602 2 -581 -15 -590 -19 -11 -21
-108 -3 -126 9 -9 7 -12 -11 -12 -40 0 -102 -23 -112 -41 -5 -10 -35 -26 -67
-35 -155 -45 -261 -77 -297 -90 -23 -8 -50 -14 -61 -14 -11 0 -26 -6 -33 -12
-17 -17 -6 116 16 189 16 54 29 69 201 228 42 39 73 80 94 123 29 59 32 71 31
161 -1 67 -8 114 -22 155 l-20 60 111 123 c105 117 112 123 149 123 l39 0 0
-242z m-3996 -2176 l27 -52 -39 -38 c-46 -44 -75 -139 -52 -167 11 -13 9 -20
-12 -43 -40 -44 -58 -79 -58 -112 0 -17 -8 -42 -17 -56 -9 -14 -19 -42 -22
-62 -6 -36 -8 -37 -54 -40 -58 -4 -58 -8 -13 163 44 165 117 378 163 475 l36
75 7 -46 c4 -25 20 -69 34 -97z m-267 -628 c-3 -3 -12 -4 -19 -1 -8 3 -5 6 6
6 11 1 17 -2 13 -5z m-747 -392 c0 -12 -59 -44 -69 -38 -5 4 -22 1 -37 -4 -26
-10 -27 -10 -12 12 8 12 26 26 39 29 34 10 79 10 79 1z m4545 -142 c11 18 25
11 25 -12 0 -13 -8 -33 -18 -46 l-17 -22 -19 30 c-20 35 -15 70 8 51 10 -8 16
-9 21 -1z m-22 -1147 l70 -46 -7 -90 c-3 -50 -6 -164 -6 -254 l0 -163 -64 0
c-59 0 -67 3 -119 42 -31 24 -57 46 -57 50 0 4 51 9 113 10 l112 3 3 51 3 51
-81 7 -80 7 0 200 0 200 21 -12 c12 -6 53 -32 92 -56z m-208 -221 c-9 -100
-12 -107 -32 -110 -21 -3 -23 1 -23 42 0 28 5 46 11 46 9 0 10 22 6 76 -6 66
-4 80 15 117 l22 42 6 -53 c3 -29 1 -101 -5 -160z m474 49 l88 -59 0 -260 -1
-260 -29 -6 c-16 -3 -52 -6 -79 -6 -41 0 -56 6 -98 39 l-50 39 63 6 c34 4 85
7 112 9 l50 2 0 50 0 50 -45 3 c-25 1 -59 4 -76 7 l-31 5 -7 84 c-6 79 3 356
11 356 2 0 43 -27 92 -59z m298 -195 c80 -49 82 -51 88 -95 3 -26 1 -80 -4
-121 -6 -41 -11 -141 -11 -222 l0 -148 -99 0 c-93 0 -100 1 -134 29 l-37 29
31 6 c18 3 74 6 126 6 l94 0 -3 53 -3 52 -68 7 c-38 3 -72 9 -75 13 -12 12 -9
446 3 443 5 -2 47 -25 92 -52z m-852 -396 c3 -5 1 -10 -4 -10 -6 0 -11 5 -11
10 0 6 2 10 4 10 3 0 8 -4 11 -10z m215 -169 l34 -29 -109 -6 c-61 -4 -130 -8
-153 -10 -41 -3 -43 -2 -38 18 3 11 6 26 6 33 0 13 40 19 150 21 69 1 78 -1
110 -27z"/>
</g>
</svg>
